<?xml version="1.0" encoding="UTF-8" standalone="no"?>
<!-- Created with Inkscape (http://www.inkscape.org/) -->

<svg
   xmlns:dc="http://purl.org/dc/elements/1.1/"
   xmlns:cc="http://creativecommons.org/ns#"
   xmlns:rdf="http://www.w3.org/1999/02/22-rdf-syntax-ns#"
   xmlns:svg="http://www.w3.org/2000/svg"
   xmlns="http://www.w3.org/2000/svg"
   xmlns:sodipodi="http://sodipodi.sourceforge.net/DTD/sodipodi-0.dtd"
   xmlns:inkscape="http://www.inkscape.org/namespaces/inkscape"
   version="1.1"
   id="svg2"
   xml:space="preserve"
   width="239.13281"
   height="210.16019"
   viewBox="0 0 239.13281 210.16019"
   sodipodi:docname="github-octocat-SU-ru.svg"
   inkscape:version="0.92.3 (2405546, 2018-03-11)"
   inkscape:export-filename="/home/rasmiy/Изображения/GitHub/images/github-octocat-SU-ru.png"
   inkscape:export-xdpi="289.15088"
   inkscape:export-ydpi="289.15088"><metadata
     id="metadata8"><rdf:RDF><cc:Work
         rdf:about=""><dc:format>image/svg+xml</dc:format><dc:type
           rdf:resource="http://purl.org/dc/dcmitype/StillImage" /><dc:title /></cc:Work></rdf:RDF></metadata><defs
     id="defs6"><inkscape:path-effect
       effect="spiro"
       id="path-effect882"
       is_visible="true" /><inkscape:path-effect
       effect="spiro"
       id="path-effect4917"
       is_visible="true" /><inkscape:path-effect
       effect="spiro"
       id="path-effect4681"
       is_visible="true" /><inkscape:path-effect
       effect="spiro"
       id="path-effect4674"
       is_visible="true" /><inkscape:path-effect
       effect="spiro"
       id="path-effect4667"
       is_visible="true" /><inkscape:path-effect
       effect="spiro"
       id="path-effect4648"
       is_visible="true" /><inkscape:path-effect
       effect="spiro"
       id="path-effect4644"
       is_visible="true" /><clipPath
       clipPathUnits="userSpaceOnUse"
       id="clipPath22"><path
         d="M 687.207,101.289 C 698.379,49.0508 725.957,18.1719 752.988,0 L 1041.02,0.339844 C 1075.86,23.9883 1111.49,68.7891 1111.49,153.398 v 216.973 c 0,0 4.47,53.699 53.69,71.59 0,0 29.06,20.129 -2.25,31.309 0,0 -136.44,11.23 -136.44,-100.649 V 207.09 c 0,0 5.39,-61.008 -26.838,-86.11 v 204.29 c 0,0 2.228,64.859 35.778,89.468 0,0 22.37,40.25 -26.83,29.082 0,0 -93.948,-13.422 -98.42,-123.031 l -2.149,-209.891 h -22.582 l -2.129,209.891 c -4.472,109.609 -98.418,123.031 -98.418,123.031 -49.218,11.168 -26.836,-29.082 -26.836,-29.082 33.555,-24.609 35.782,-89.468 35.782,-89.468 V 118.641 c -32.246,22.808 -26.836,88.449 -26.836,88.449 v 165.531 c 0,111.879 -136.446,100.649 -136.446,100.649 -31.328,-11.18 -2.246,-31.309 -2.246,-31.309 49.219,-17.891 53.692,-71.59 53.692,-71.59 V 218.582 Z"
         id="path20"
         inkscape:connector-curvature="0" /></clipPath><inkscape:path-effect
       effect="spiro"
       id="path-effect882-8"
       is_visible="true" /><inkscape:path-effect
       effect="spiro"
       id="path-effect882-0"
       is_visible="true" /><inkscape:path-effect
       effect="spiro"
       id="path-effect882-0-0"
       is_visible="true" /><inkscape:path-effect
       effect="spiro"
       id="path-effect882-0-4"
       is_visible="true" /><inkscape:path-effect
       effect="spiro"
       id="path-effect882-0-4-4"
       is_visible="true" /><inkscape:path-effect
       effect="spiro"
       id="path-effect882-0-4-4-6"
       is_visible="true" /><inkscape:path-effect
       effect="spiro"
       id="path-effect882-0-4-4-1"
       is_visible="true" /><inkscape:path-effect
       effect="spiro"
       id="path-effect882-0-4-4-5"
       is_visible="true" /><inkscape:path-effect
       effect="spiro"
       id="path-effect882-0-4-4-62"
       is_visible="true" /><inkscape:path-effect
       effect="spiro"
       id="path-effect882-0-4-4-62-7"
       is_visible="true" /></defs><sodipodi:namedview
     pagecolor="#ffffff"
     bordercolor="#666666"
     borderopacity="1"
     objecttolerance="10"
     gridtolerance="10"
     guidetolerance="10"
     inkscape:pageopacity="0"
     inkscape:pageshadow="2"
     inkscape:window-width="1920"
     inkscape:window-height="1051"
     id="namedview4"
     showgrid="false"
     inkscape:zoom="3.8971762"
     inkscape:cx="98.921384"
     inkscape:cy="69.771034"
     inkscape:window-x="2560"
     inkscape:window-y="0"
     inkscape:window-maximized="1"
     inkscape:current-layer="g4617"
     fit-margin-top="0"
     fit-margin-left="0"
     fit-margin-right="0"
     fit-margin-bottom="0" /><g
     id="g10"
     inkscape:groupmode="layer"
     inkscape:label="ink_ext_XXXXXX"
     transform="matrix(1.3333333,0,0,-1.3333333,0,242.22166)"
     style="display:none"><g
       id="g12"
       transform="scale(0.1)"><path
         d="m 1407.16,416.629 c 0,-97.301 -225.38,-176.168 -503.387,-176.168 -278.031,0 -503.402,78.867 -503.402,176.168 0,97.312 225.371,176.199 503.402,176.199 278.007,0 503.387,-78.887 503.387,-176.199 v 0"
         style="fill:#a5e2f4;fill-opacity:1;fill-rule:nonzero;stroke:none"
         id="path14"
         inkscape:connector-curvature="0" /><g
         id="g16"><g
           id="g18"
           clip-path="url(#clipPath22)"><path
             d="m 1407.16,416.629 c 0,-97.301 -225.38,-176.168 -503.387,-176.168 -278.031,0 -503.402,78.867 -503.402,176.168 0,97.312 225.371,176.199 503.402,176.199 278.007,0 503.387,-78.887 503.387,-176.199 v 0"
             style="fill:#86c0ea;fill-opacity:1;fill-rule:nonzero;stroke:none"
             id="path24"
             inkscape:connector-curvature="0" /></g></g><path
         d="m 328.73,934.68 -14.531,-50.625 c 0,0 -3.777,-18.301 13.457,-21.543 18.008,0.351 16.532,17.187 15.274,22.656 l -14.2,49.512 v 0"
         style="fill:#a5e2f4;fill-opacity:1;fill-rule:nonzero;stroke:none"
         id="path26"
         inkscape:connector-curvature="0" /><path
         d="m 1792.16,1146.95 1.33,6.58 c -147.68,29.53 -299.22,29.82 -390.9,26.01 15.06,54.26 19.59,116.7 19.59,186.33 0,99.86 -37.52,179.76 -98.42,240.54 10.64,34.36 24.86,110.66 -14.2,208.34 0,0 -68.91,21.88 -224.77,-82.44 -61.06,15.26 -126.036,22.8 -191.118,22.8 -71.602,0 -143.945,-9.12 -211.426,-27.63 -160.859,109.75 -231.863,87.27 -231.863,87.27 -46.36,-115.9 -17.699,-201.71 -8.988,-223.03 -54.481,-58.79 -87.743,-133.84 -87.743,-225.85 0,-69.46 7.918,-131.78 27.239,-185.94 C 288.43,1183.29 142.402,1182 0,1153.53 l 1.31641,-6.58 c 143.25359,28.65 290.18759,29.64 382.08959,26.17 4.262,-11.21 8.996,-22.09 14.309,-32.6 -90.879,-2.93 -246.043,-14.51 -394.75406,-56.47 l 1.82422,-6.44 C 154.668,1119.88 311.191,1131.16 401.191,1133.92 455.488,1032.71 562.539,967.336 752.988,946.809 725.957,928.645 698.391,897.766 687.207,845.52 650.371,827.902 533.77,784.898 463.809,905.227 c 0,0 -39.161,71.601 -114.114,77.207 0,0 -72.715,1.113 -5.027,-45.313 0,0 48.66,-22.93 82.227,-109.082 0,0 43.789,-146.949 255.117,-99.801 V 576.441 c 0,0 -4.473,-53.691 -53.692,-71.582 0,0 -29.082,-20.14 2.246,-31.308 0,0 136.446,-11.192 136.446,100.64 v 165.528 c 0,0 -5.403,65.64 26.836,88.457 V 556.301 c 0,0 -2.227,-64.86 -35.782,-89.473 0,0 -22.375,-40.246 26.836,-29.078 0,0 93.946,13.422 98.418,123.031 l 2.141,275.129 h 22.57 l 2.149,-275.129 c 4.472,-109.609 98.42,-123.031 98.42,-123.031 49.2,-11.168 26.83,29.078 26.83,29.078 -33.55,24.613 -35.778,89.473 -35.778,89.473 v 269.531 c 32.228,-25.094 26.838,-86.113 26.838,-86.113 V 574.191 c 0,-111.832 136.44,-100.64 136.44,-100.64 31.31,11.168 2.25,31.308 2.25,31.308 -49.22,17.891 -53.69,71.582 -53.69,71.582 V 793.41 c 0,84.61 -35.63,129.414 -70.47,153.067 203.11,20.136 300.57,85.723 345.48,187.613 88.96,-2.44 249.06,-13.28 402.21,-56.48 l 1.81,6.44 c -152.26,42.95 -311.31,54.07 -401.17,56.68 4.26,10.3 7.97,21 11.27,32.02 91.05,3.88 243.28,3.84 391.54,-25.8 v 0"
         style="fill:#100f0d;fill-opacity:1;fill-rule:nonzero;stroke:none"
         id="path28"
         inkscape:connector-curvature="0" /><path
         d="m 1223.52,1370.58 c 43.75,-39.63 69.34,-87.49 69.34,-139.05 0,-240.757 -179.48,-247.28 -400.848,-247.28 -221.399,0 -400.86,33.34 -400.86,247.28 0,51.22 25.235,98.77 68.446,138.25 72.062,65.78 194.043,30.95 332.414,30.95 137.818,0 259.338,35.18 331.508,-30.15 v 0"
         style="fill:#f5c6aa;fill-opacity:1;fill-rule:nonzero;stroke:none"
         id="path30"
         inkscape:connector-curvature="0" /><path
         d="m 758.711,1219.25 c 0,-66.31 -37.344,-120.06 -83.398,-120.06 -46.067,0 -83.418,53.75 -83.418,120.06 0,66.31 37.351,120.04 83.418,120.04 46.054,0 83.398,-53.73 83.398,-120.04 v 0"
         style="fill:#ffffff;fill-opacity:1;fill-rule:nonzero;stroke:none"
         id="path32"
         inkscape:connector-curvature="0" /><path
         d="m 731.953,1217.75 c 0,-44.2 -24.91,-80.02 -55.605,-80.02 -30.723,0 -55.606,35.82 -55.606,80.02 0,44.21 24.883,80.05 55.606,80.05 30.695,0 55.605,-35.84 55.605,-80.05 v 0"
         style="fill:#ac4a48;fill-opacity:1;fill-rule:nonzero;stroke:none"
         id="path34"
         inkscape:connector-curvature="0" /><path
         d="m 1206.18,1219.25 c 0,-66.31 -37.35,-120.06 -83.42,-120.06 -46.06,0 -83.4,53.75 -83.4,120.06 0,66.31 37.34,120.04 83.4,120.04 46.07,0 83.42,-53.73 83.42,-120.04 v 0"
         style="fill:#ffffff;fill-opacity:1;fill-rule:nonzero;stroke:none"
         id="path36"
         inkscape:connector-curvature="0" /><path
         d="m 1179.4,1217.75 c 0,-44.2 -24.9,-80.02 -55.61,-80.02 -30.7,0 -55.6,35.82 -55.6,80.02 0,44.21 24.9,80.05 55.6,80.05 30.71,0 55.61,-35.84 55.61,-80.05 v 0"
         style="fill:#ac4a48;fill-opacity:1;fill-rule:nonzero;stroke:none"
         id="path38"
         inkscape:connector-curvature="0" /><path
         d="m 914.047,1112.63 c 0,-11.52 -9.336,-20.86 -20.863,-20.86 -11.524,0 -20.86,9.34 -20.86,20.86 0,11.52 9.336,20.86 20.86,20.86 11.527,0 20.863,-9.34 20.863,-20.86 v 0"
         style="fill:#ac4a48;fill-opacity:1;fill-rule:nonzero;stroke:none"
         id="path40"
         inkscape:connector-curvature="0" /><path
         d="m 844.59,1059.89 c -1.231,3.5 0.605,7.33 4.09,8.56 3.488,1.23 7.328,-0.61 8.554,-4.08 5.364,-15.16 19.739,-25.33 35.774,-25.33 16.039,0 30.414,10.17 35.785,25.33 1.23,3.49 5.059,5.31 8.555,4.08 3.496,-1.23 5.312,-5.06 4.082,-8.56 -7.246,-20.48 -26.719,-34.25 -48.422,-34.25 -21.699,0 -41.153,13.77 -48.418,34.25 v 0"
         style="fill:#ac4a48;fill-opacity:1;fill-rule:nonzero;stroke:none"
         id="path42"
         inkscape:connector-curvature="0" /><path
         d="m 382.148,964.523 c 0,-5.566 -6.523,-10.058 -14.55,-10.058 -8.028,0 -14.543,4.492 -14.543,10.058 0,5.567 6.515,10.079 14.543,10.079 8.027,0 14.55,-4.512 14.55,-10.079 v 0"
         style="fill:#c5ead4;fill-opacity:1;fill-rule:nonzero;stroke:none"
         id="path44"
         inkscape:connector-curvature="0" /><path
         d="m 422.422,942.16 c 0,-5.566 -6.524,-10.078 -14.551,-10.078 -8.027,0 -14.543,4.512 -14.543,10.078 0,5.547 6.516,10.059 14.543,10.059 8.027,0 14.551,-4.512 14.551,-10.059 v 0"
         style="fill:#c5ead4;fill-opacity:1;fill-rule:nonzero;stroke:none"
         id="path46"
         inkscape:connector-curvature="0" /><path
         d="m 447.031,913.059 c 0,-5.547 -6.515,-10.059 -14.551,-10.059 -8.027,0 -14.531,4.512 -14.531,10.059 0,5.566 6.504,10.078 14.531,10.078 8.036,0 14.551,-4.512 14.551,-10.078 v 0"
         style="fill:#c5ead4;fill-opacity:1;fill-rule:nonzero;stroke:none"
         id="path48"
         inkscape:connector-curvature="0" /><path
         d="m 469.395,879.504 c 0,-5.566 -6.504,-10.078 -14.532,-10.078 -8.039,0 -14.55,4.512 -14.55,10.078 0,5.566 6.511,10.078 14.55,10.078 8.028,0 14.532,-4.512 14.532,-10.078 v 0"
         style="fill:#c5ead4;fill-opacity:1;fill-rule:nonzero;stroke:none"
         id="path50"
         inkscape:connector-curvature="0" /><path
         d="m 494.016,848.176 c 0,-5.547 -6.516,-10.059 -14.543,-10.059 -8.028,0 -14.551,4.512 -14.551,10.059 0,5.566 6.523,10.078 14.551,10.078 8.027,0 14.543,-4.512 14.543,-10.078 v 0"
         style="fill:#c5ead4;fill-opacity:1;fill-rule:nonzero;stroke:none"
         id="path52"
         inkscape:connector-curvature="0" /><path
         d="m 527.578,821.34 c 0,-5.559 -6.515,-10.078 -14.551,-10.078 -8.027,0 -14.531,4.519 -14.531,10.078 0,5.547 6.504,10.058 14.531,10.058 8.036,0 14.551,-4.511 14.551,-10.058 v 0"
         style="fill:#c5ead4;fill-opacity:1;fill-rule:nonzero;stroke:none"
         id="path54"
         inkscape:connector-curvature="0" /><path
         d="m 574.559,803.43 c 0,-5.551 -6.512,-10.059 -14.539,-10.059 -8.04,0 -14.551,4.508 -14.551,10.059 0,5.57 6.511,10.082 14.551,10.082 8.027,0 14.539,-4.512 14.539,-10.082 v 0"
         style="fill:#c5ead4;fill-opacity:1;fill-rule:nonzero;stroke:none"
         id="path56"
         inkscape:connector-curvature="0" /><path
         d="m 621.316,803.43 c 0,-5.551 -6.511,-10.059 -14.539,-10.059 -8.039,0 -14.55,4.508 -14.55,10.059 0,5.57 6.511,10.082 14.55,10.082 8.028,0 14.539,-4.512 14.539,-10.082 v 0"
         style="fill:#c5ead4;fill-opacity:1;fill-rule:nonzero;stroke:none"
         id="path58"
         inkscape:connector-curvature="0" /><path
         d="m 668.777,811.219 c 0,-5.559 -6.511,-10.071 -14.539,-10.071 -8.039,0 -14.55,4.512 -14.55,10.071 0,5.57 6.511,10.082 14.55,10.082 8.028,0 14.539,-4.512 14.539,-10.082 v 0"
         style="fill:#c5ead4;fill-opacity:1;fill-rule:nonzero;stroke:none"
         id="path60"
         inkscape:connector-curvature="0" /></g></g><g
     transform="matrix(1.3333333,0,0,-1.3333333,0,242.22166)"
     inkscape:label="Копия слоя ink_ext_XXXXXX"
     inkscape:groupmode="layer"
     id="g4617"><g
       transform="scale(0.1)"
       id="g4615"><path
         inkscape:connector-curvature="0"
         id="path4571"
         style="fill:#e4847d;fill-opacity:1;fill-rule:nonzero;stroke:none"
         d="m 1407.16,416.629 c 0,-97.301 -225.38,-176.168 -503.387,-176.168 -278.031,0 -503.402,78.867 -503.402,176.168 0,97.312 225.371,176.199 503.402,176.199 278.007,0 503.387,-78.887 503.387,-176.199 v 0" /><g
         id="g4577"><g
           clip-path="url(#clipPath22)"
           id="g4575"><path
             inkscape:connector-curvature="0"
             id="path4573"
             style="fill:#e90d00;fill-opacity:1;fill-rule:nonzero;stroke:none"
             d="m 1407.16,416.629 c 0,-97.301 -225.38,-176.168 -503.38698,-176.168 -278.031,0 -503.402,78.867 -503.402,176.168 0,97.312 225.371,176.199 503.402,176.199 278.00698,0 503.38698,-78.887 503.38698,-176.199 v 0" /></g></g><path
         inkscape:connector-curvature="0"
         id="path4579"
         style="fill:#ff1107;fill-opacity:1;fill-rule:nonzero;stroke:none"
         d="m 311.48347,805.13345 -14.531,-50.625 c 0,0 -3.777,-18.301 13.457,-21.543 18.008,0.351 16.532,17.187 15.274,22.656 l -14.2,49.512 v 0"
         sodipodi:nodetypes="cccccc" /><path
         style="fill:#ffc040;fill-opacity:1;fill-rule:nonzero;stroke:none;stroke-width:0.13333333"
         d="m 105.8457,131.80273 c -0.47808,-5.03096 -1.71341,-10.40609 -5.44726,-15.8164 -3.604136,2.42186 -10.091066,12.43443 -9.314256,23.21081 -4.820746,1.80475 -23.180111,3.09457 -30.058793,-13.13073 l 3.669921,-1.78321 c -1.738099,-3.65949 -3.183852,-6.86759 -6.457031,-11.77734 0,0 -9.994658,4.1814 -15.243064,7.00446 -0.88881,7.16488 -0.760199,8.73206 -1.464089,15.36523 0,0 4.927088,-2.06977 10.1427,-4.24664 1.133195,1.99626 2.570057,5.7734 5.064453,9.7207 0,0 6.745763,15.96422 34.015625,13.30664 0,0 1.418018,3.98035 0.181641,11.71094 -0.707228,4.42202 -10.97141,8.87953 -16.412109,9.45508 -5.196544,0.54971 -22.246283,1.97615 -37.19336,-15.70704 -20.883867,-24.70672 -9.723632,-55.2256 -9.947266,-54.79687 -0.223633,0.42873 -17.4221185,35.99977 4.625,62.05664 20.930201,24.73681 45.012953,19.7439 46.625,19.51562 2.147099,-0.30404 23.915998,-5.31437 23.634768,-20.22265 l -0.2566,-13.60264 c 0,0 2.19642,-0.21451 3.89316,-0.38719 0.0319,-1.49251 1.58111,-14.95348 0.22306,-14.85829 -1.3034,0.0914 -2.41101,0.21386 -3.77323,0.29751 0.35721,-2.56845 1.34246,-3.7935 3.49173,-5.31463 z"
         id="path4661"
         transform="matrix(7.5000002,0,0,-7.5000002,0,1816.7001)"
         inkscape:connector-curvature="0"
         sodipodi:nodetypes="cccccccccccscscscsccscc" /><path
         style="fill:#f90300;fill-opacity:1;fill-rule:nonzero;stroke:none;stroke-width:0.13333333"
         d="m 118.06055,130.77148 c -5.24716,-2.46169 -8.29125,-1.95051 -12.21485,1.03125 v 36.25 c 0,0 -0.29553,8.64796 -4.76953,11.92969 0,0 -2.983343,5.36602 3.57813,3.87696 0,0 12.52482,-1.78977 13.12109,-16.4043 z"
         id="path4670"
         transform="matrix(7.5000002,0,0,-7.5000002,0,1816.7001)"
         inkscape:connector-curvature="0"
         sodipodi:nodetypes="ccccccc" /><path
         style="fill:#0028f7;fill-opacity:1;fill-rule:nonzero;stroke:none;stroke-width:0.13333333"
         d="m 133.28711,132.11523 c -2.98385,-3.40891 -8.18253,-4.27345 -12.2168,-1.34375 l 0.28711,36.6836 c 0.59627,14.61453 13.12305,16.40428 13.12305,16.4043 6.56,1.48906 3.57617,-3.87696 3.57617,-3.87696 -4.47333,-3.28173 -4.76953,-11.92969 -4.76953,-11.92969 z"
         id="path4677"
         transform="matrix(7.5000002,0,0,-7.5000002,0,1816.7001)"
         inkscape:connector-curvature="0"
         sodipodi:nodetypes="ccccccc" /><path
         style="fill:#ffffff;fill-opacity:1;fill-rule:nonzero;stroke:#000000;stroke-width:0.133;stroke-miterlimit:4;stroke-dasharray:none;stroke-opacity:1"
         d="m 147.04688,128.02734 c -5.09239,-2.03185 -10.78024,-0.33699 -13.75977,4.08789 4.29707,3.34587 3.57812,11.48243 3.57812,11.48243 v 22.07031 c 0,14.91093 18.19141,13.41797 18.19141,13.41797 4.17467,-1.48907 0.30078,-4.17383 0.30078,-4.17383 -6.56266,-2.38547 -7.1582,-9.54492 -7.1582,-9.54492 v -28.92774 c 0,-3.265 -0.47416,-5.97578 -1.15234,-8.41211 z"
         id="path4684"
         transform="matrix(7.5000002,0,0,-7.5000002,0,1816.7001)"
         inkscape:connector-curvature="0"
         sodipodi:nodetypes="cccscccsc" /><path
         style="fill:#ffc040;fill-opacity:1;fill-rule:nonzero;stroke:none;stroke-width:0.13333333"
         d="m 138.80273,116.02344 c -12.4946,-0.39557 -25.01119,0.009 -38.40429,-0.043 3.32034,5.80223 4.13367,9.85956 5.44726,15.81641 4.70098,-2.65992 8.15756,-2.67454 12.21485,-1.03126 h 3.00976 c 5.01584,-2.35502 8.66401,-0.86514 12.2168,1.34376 3.21622,-4.49215 8.81544,-6.15575 13.75977,-4.0879 -1.66512,-5.98171 -4.94325,-9.75706 -8.24415,-11.99804 z"
         id="path4920"
         transform="matrix(7.5000002,0,0,-7.5000002,0,1816.6625)"
         inkscape:connector-curvature="0"
         sodipodi:nodetypes="cccccccc" /><path
         style="fill:#100f0d;fill-opacity:1;fill-rule:nonzero;stroke:none;stroke-width:0.13333333"
         d="M 61.865234,0.01367188 C 60.642561,0.06602605 60.050781,0.25390625 60.050781,0.25390625 53.869448,15.70724 57.692049,27.14952 58.853516,29.992188 51.589382,37.830854 47.154297,47.837469 47.154297,60.105469 c 0,9.261333 1.054726,17.569682 3.630859,24.791015 C 38.457023,84.448484 18.986933,84.620016 0,88.416016 l 0.17578125,0.878906 C 19.276259,85.474922 38.867494,85.34202 51.121094,85.804688 c 0.568266,1.494667 1.199803,2.946323 1.908203,4.347656 -12.1172,0.390667 -32.806625,1.93463 -52.63476575,7.529297 l 0.24414063,0.857421 C 20.62305,92.903062 41.492184,91.39925 53.492188,91.03125 c 8.560202,15.29794 33.869244,24.92753 46.906252,24.94922 13.42756,0.0223 25.62483,0.31947 38.40429,0.043 21.30293,-0.46087 40.07646,-11.42834 46.06446,-25.013674 11.86133,0.325333 33.20695,1.769296 53.62695,7.529296 l 0.24219,-0.857421 c -20.30133,-5.726667 -41.5089,-7.210594 -53.49024,-7.558594 0.568,-1.373333 1.06391,-2.800198 1.50391,-4.269531 12.14,-0.517333 32.43708,-0.510594 52.20508,3.441406 l 0.17773,-0.878906 c -19.69066,-3.937333 -39.89709,-3.974797 -52.12109,-3.466797 2.008,-7.234666 2.61133,-15.55975 2.61133,-24.84375 0,-13.314666 -5.0011,-23.968263 -13.1211,-32.072266 1.41867,-4.581333 3.31347,-14.755297 -1.89453,-27.77929675 0,0 -9.18742,-2.91714515 -29.96875,10.99218775 -8.14133,-2.0346665 -16.80482,-3.0390627 -25.48242,-3.0390628 -9.54693,0 -19.191987,1.2155954 -28.189453,3.6835938 C 74.880897,0.91570671 65.533253,-0.14339063 61.865234,0.01367188 Z"
         id="path4581"
         transform="matrix(7.5000002,0,0,-7.5000002,0,1816.6625)"
         inkscape:connector-curvature="0"
         sodipodi:nodetypes="sccsccccccccssccccccccscccscs" /><path
         inkscape:connector-curvature="0"
         id="path4583"
         style="fill:#f5c6aa;fill-opacity:1;fill-rule:nonzero;stroke:none"
         d="m 1223.52,1370.58 c 43.75,-39.63 69.34,-87.49 69.34,-139.05 0,-240.757 -179.48,-247.28 -400.848,-247.28 -221.399,0 -400.86,33.34 -400.86,247.28 0,51.22 25.235,98.77 68.446,138.25 72.062,65.78 194.043,30.95 332.414,30.95 137.818,0 259.338,35.18 331.508,-30.15 v 0" /><path
         inkscape:connector-curvature="0"
         id="path4585"
         style="fill:#ffffff;fill-opacity:1;fill-rule:nonzero;stroke:none"
         d="m 758.711,1219.25 c 0,-66.31 -37.344,-120.06 -83.398,-120.06 -46.067,0 -83.418,53.75 -83.418,120.06 0,66.31 37.351,120.04 83.418,120.04 46.054,0 83.398,-53.73 83.398,-120.04 v 0" /><path
         inkscape:connector-curvature="0"
         id="path4587"
         style="fill:#ac4a48;fill-opacity:1;fill-rule:nonzero;stroke:none"
         d="m 731.953,1217.75 c 0,-44.2 -24.91,-80.02 -55.605,-80.02 -30.723,0 -55.606,35.82 -55.606,80.02 0,44.21 24.883,80.05 55.606,80.05 30.695,0 55.605,-35.84 55.605,-80.05 v 0" /><path
         inkscape:connector-curvature="0"
         id="path4589"
         style="fill:#ffffff;fill-opacity:1;fill-rule:nonzero;stroke:none"
         d="m 1206.18,1219.25 c 0,-66.31 -37.35,-120.06 -83.42,-120.06 -46.06,0 -83.4,53.75 -83.4,120.06 0,66.31 37.34,120.04 83.4,120.04 46.07,0 83.42,-53.73 83.42,-120.04 v 0" /><path
         inkscape:connector-curvature="0"
         id="path4591"
         style="fill:#ac4a48;fill-opacity:1;fill-rule:nonzero;stroke:none"
         d="m 1179.4,1217.75 c 0,-44.2 -24.9,-80.02 -55.61,-80.02 -30.7,0 -55.6,35.82 -55.6,80.02 0,44.21 24.9,80.05 55.6,80.05 30.71,0 55.61,-35.84 55.61,-80.05 v 0" /><path
         inkscape:connector-curvature="0"
         id="path4593"
         style="fill:#ac4a48;fill-opacity:1;fill-rule:nonzero;stroke:none"
         d="m 914.047,1112.63 c 0,-11.52 -9.336,-20.86 -20.863,-20.86 -11.524,0 -20.86,9.34 -20.86,20.86 0,11.52 9.336,20.86 20.86,20.86 11.527,0 20.863,-9.34 20.863,-20.86 v 0" /><path
         inkscape:connector-curvature="0"
         id="path4595"
         style="fill:#ac4a48;fill-opacity:1;fill-rule:nonzero;stroke:none"
         d="m 844.59,1059.89 c -1.231,3.5 0.605,7.33 4.09,8.56 3.488,1.23 7.328,-0.61 8.554,-4.08 5.364,-15.16 19.739,-25.33 35.774,-25.33 16.039,0 30.414,10.17 35.785,25.33 1.23,3.49 5.059,5.31 8.555,4.08 3.496,-1.23 5.312,-5.06 4.082,-8.56 -7.246,-20.48 -26.719,-34.25 -48.422,-34.25 -21.699,0 -41.153,13.77 -48.418,34.25 v 0" /></g><path
       style="fill:#ff1107;fill-opacity:1;fill-rule:evenodd;stroke:none;stroke-width:1.2966578px;stroke-linecap:butt;stroke-linejoin:miter;stroke-opacity:1"
       d="m 42.868131,84.746321 c 0.03742,-0.0568 0.09281,-0.101564 0.156193,-0.126247 0.06338,-0.02468 0.134457,-0.02917 0.200437,-0.01264 0.084,0.02104 0.156549,0.07422 0.218775,0.134441 0.06223,0.06022 0.116355,0.128385 0.17856,0.188629 0.0622,0.06024 0.134707,0.113473 0.218686,0.134603 0.04199,0.01056 0.08637,0.01276 0.128709,0.0037 0.04234,-0.0091 0.08252,-0.02971 0.112692,-0.06076 0.0296,-0.03045 0.0489,-0.07019 0.05743,-0.111794 0.0085,-0.0416 0.0066,-0.08499 -0.0028,-0.12641 -0.01869,-0.08285 -0.06574,-0.156319 -0.116177,-0.224653 -0.05043,-0.06833 -0.10547,-0.134088 -0.143975,-0.209788 -0.01925,-0.03785 -0.03424,-0.07811 -0.04145,-0.119955 -0.0072,-0.04185 -0.0065,-0.08537 0.005,-0.126248 0.01308,-0.04655 0.03986,-0.08864 0.07375,-0.123111 0.0339,-0.03447 0.07476,-0.06158 0.118046,-0.08312 0.08657,-0.04307 0.182097,-0.06407 0.274171,-0.0936 0.09207,-0.02953 0.184454,-0.07005 0.248781,-0.142236 0.03216,-0.0361 0.05647,-0.0798 0.06632,-0.127134 0.0098,-0.04733 0.0046,-0.0983 -0.01806,-0.140994 -0.02307,-0.0434 -0.06329,-0.07655 -0.108839,-0.09502 -0.04554,-0.01848 -0.0961,-0.02286 -0.144892,-0.01696 -0.09759,0.01181 -0.185593,0.06272 -0.26891,0.114886 -0.08332,0.05217 -0.167272,0.107647 -0.262877,0.130512 -0.0478,0.01143 -0.09813,0.01429 -0.146163,0.0039 -0.04803,-0.01044 -0.09365,-0.03469 -0.125954,-0.07173 -0.0242,-0.02774 -0.04044,-0.06196 -0.04904,-0.09775 -0.0086,-0.03579 -0.0097,-0.07313 -0.0058,-0.109729 0.0079,-0.07319 0.03561,-0.142571 0.06294,-0.210929 0.02732,-0.06836 0.05481,-0.137864 0.06222,-0.211106 0.0037,-0.03662 0.0023,-0.07397 -0.0067,-0.109666 -0.009,-0.0357 -0.02562,-0.06974 -0.05018,-0.09715 -0.0408,-0.04552 -0.10224,-0.07038 -0.163358,-0.07114 -0.06112,-7.6e-4 -0.121445,0.02144 -0.170798,0.0575 -0.04935,0.03606 -0.08811,0.08543 -0.116358,0.139629 -0.02825,0.0542 -0.04634,0.11323 -0.0588,0.173069 -0.02492,0.119678 -0.02779,0.243127 -0.05296,0.362753 -0.01259,0.05981 -0.03087,0.118792 -0.05935,0.172875 -0.02848,0.05408 -0.0675,0.103257 -0.117078,0.139006 -0.0455,0.03281 -0.09894,0.05365 -0.153873,0.06497 -0.05494,0.01132 -0.111454,0.01337 -0.167488,0.01083 -0.112067,-0.0051 -0.22285,-0.0283 -0.335001,-0.03096 -0.05608,-0.0013 -0.112575,0.0026 -0.166972,0.01623 -0.0544,0.01368 -0.106749,0.03744 -0.150029,0.07312 -0.04328,0.03568 -0.07714,0.08369 -0.09185,0.137819 -0.01471,0.05413 -0.0093,0.114288 0.01873,0.162868 0.01865,0.03232 0.04664,0.05879 0.07864,0.07799 0.032,0.0192 0.06793,0.03131 0.104619,0.03814 0.07337,0.01365 0.148792,0.0065 0.223202,7.21e-4 0.07441,-0.0057 0.150506,-0.0098 0.222541,0.0097 0.03602,0.0098 0.07067,0.02549 0.100125,0.04841 0.02945,0.02292 0.05355,0.05321 0.06677,0.08811 0.01289,0.03402 0.01516,0.07163 0.009,0.107492 -0.0062,0.03586 -0.02059,0.07001 -0.03982,0.100904 -0.03845,0.06178 -0.09499,0.109953 -0.152264,0.154841 -0.05728,0.04489 -0.116548,0.08798 -0.166041,0.14133 -0.04949,0.05335 -0.08893,0.118003 -0.102385,0.189519 -0.01345,0.07152 0.0011,0.148937 0.04421,0.207525 0.04316,0.05859 0.113882,0.09556 0.186586,0.09866 0.0727,0.0031 0.144503,-0.02653 0.200398,-0.07313 0.0559,-0.0466 0.09641,-0.108592 0.135267,-0.170121 z"
       id="path880-3"
       inkscape:connector-curvature="0"
       inkscape:path-effect="#path-effect882-0"
       inkscape:original-d="m 42.868131,84.746321 c 0.356613,0.131658 0.297094,-0.06108 0.35663,-0.138888 0.05953,-0.0778 0.599354,0.591304 0.857422,0.400598 0.258014,-0.190725 -0.336035,-0.60597 -0.24197,-0.918848 0.09407,-0.312877 0.910648,-0.408628 0.763004,-0.710193 -0.14761,-0.301527 -0.820648,0.274483 -1.057635,0.06554 -0.236974,-0.208937 0.359524,-0.731872 0.01345,-0.836326 -0.346107,-0.104472 -0.426182,0.734699 -0.738707,0.97369 -0.312585,0.238928 -1.059581,0.126942 -1.046489,0.434876 0.01309,0.307914 0.808545,0.181411 0.795899,0.263042 -0.02767,0.178586 0.01651,0.912848 0.114937,0.757026 z"
       sodipodi:nodetypes="cssssssssssc" /><path
       style="fill:#ff1107;fill-opacity:1;fill-rule:evenodd;stroke:none;stroke-width:1.19490349px;stroke-linecap:butt;stroke-linejoin:miter;stroke-opacity:1"
       d="m 45.720969,80.522999 c 0.0033,-0.05794 0.02326,-0.11483 0.05681,-0.162192 0.03354,-0.04736 0.08059,-0.08504 0.134137,-0.107426 0.08378,-0.03502 0.178862,-0.03182 0.268113,-0.01509 0.08925,0.01674 0.175733,0.04627 0.265054,0.06263 0.08932,0.01636 0.184535,0.01874 0.267865,-0.01735 0.04166,-0.01804 0.07955,-0.0457 0.106945,-0.08191 0.02739,-0.03621 0.04388,-0.08115 0.04328,-0.126546 -5.53e-4,-0.04199 -0.01562,-0.08319 -0.03978,-0.11754 -0.02415,-0.03435 -0.0571,-0.06202 -0.09361,-0.08276 -0.07303,-0.04147 -0.158268,-0.05509 -0.241757,-0.06415 -0.08349,-0.0091 -0.168442,-0.01452 -0.247812,-0.04196 -0.03968,-0.01372 -0.07773,-0.033 -0.11031,-0.05948 -0.03258,-0.02649 -0.05958,-0.06041 -0.07516,-0.0994 -0.01425,-0.03567 -0.01869,-0.07486 -0.01559,-0.113145 0.0031,-0.03829 0.01358,-0.07573 0.02817,-0.111264 0.02919,-0.07106 0.07437,-0.134155 0.114595,-0.199602 0.04023,-0.06545 0.07646,-0.135914 0.08444,-0.212321 0.004,-0.0382 6.53e-4,-0.07746 -0.01243,-0.113577 -0.01308,-0.03611 -0.0362,-0.06895 -0.06748,-0.09125 -0.03736,-0.02664 -0.08505,-0.03714 -0.13071,-0.03263 -0.04567,0.0045 -0.08927,0.02335 -0.126435,0.05027 -0.07432,0.05384 -0.121516,0.136775 -0.161752,0.219259 -0.04024,0.08248 -0.07674,0.168611 -0.137256,0.237607 -0.03026,0.0345 -0.06648,0.0643 -0.108109,0.0836 -0.04163,0.0193 -0.08889,0.02771 -0.134099,0.01987 -0.03359,-0.0058 -0.06536,-0.02042 -0.09306,-0.0403 -0.0277,-0.01988 -0.05143,-0.04495 -0.07168,-0.07237 -0.0405,-0.05485 -0.067,-0.118498 -0.09528,-0.180543 -0.02828,-0.06204 -0.05948,-0.12424 -0.10714,-0.173001 -0.02383,-0.02438 -0.05168,-0.04512 -0.08287,-0.05888 -0.03119,-0.01377 -0.06581,-0.02039 -0.09972,-0.01684 -0.04762,0.005 -0.09214,0.03017 -0.123843,0.06604 -0.03171,0.03587 -0.05098,0.08185 -0.05817,0.129179 -0.01438,0.09467 0.01817,0.190589 0.06294,0.275231 0.04477,0.08464 0.102057,0.16242 0.143315,0.24883 0.02063,0.04321 0.03721,0.08863 0.04533,0.135812 0.0081,0.04718 0.0076,0.09626 -0.0054,0.142348 -0.01257,0.04473 -0.03661,0.08577 -0.06672,0.121153 -0.03011,0.03539 -0.0662,0.06532 -0.104533,0.09158 -0.07666,0.05252 -0.162246,0.09065 -0.240606,0.140598 -0.07836,0.04995 -0.151739,0.115142 -0.185668,0.201651 -0.01696,0.04325 -0.0233,0.09115 -0.01455,0.136776 0.0088,0.04563 0.03318,0.08871 0.07011,0.116908 0.03013,0.02301 0.06759,0.03554 0.105407,0.03821 0.03781,0.0027 0.07595,-0.0042 0.11156,-0.01722 0.07122,-0.02598 0.131263,-0.07511 0.188942,-0.124314 0.05768,-0.0492 0.115682,-0.100115 0.184996,-0.130825 0.03466,-0.01536 0.07196,-0.02541 0.109845,-0.02656 0.03789,-0.0012 0.0764,0.0069 0.109338,0.02562 0.02952,0.01681 0.05395,0.04187 0.072,0.07065 0.01805,0.02878 0.02986,0.0612 0.03683,0.09445 0.01393,0.06649 0.0088,0.135366 0.0021,0.202966 -0.0067,0.0676 -0.01496,0.135536 -0.0098,0.203273 0.0052,0.06774 0.02459,0.135662 0.06482,0.190407 0.04023,0.05474 0.101771,0.0945 0.169075,0.103725 0.0673,0.0092 0.137996,-0.01302 0.188645,-0.05829 0.05065,-0.04527 0.08018,-0.111172 0.08892,-0.178542 0.0087,-0.06737 -0.0021,-0.13557 -0.01376,-0.202497 z"
       id="path880-3-4"
       inkscape:connector-curvature="0"
       inkscape:path-effect="#path-effect882-0-4"
       inkscape:original-d="m 45.720969,80.522999 c 0.372219,-0.0965 0.195652,-0.189673 0.190942,-0.269618 -0.0047,-0.07995 0.873544,0.07456 0.951258,-0.178259 0.07767,-0.25281 -0.673677,-0.217419 -0.808427,-0.465288 -0.134756,-0.247881 0.451367,-0.723029 0.131703,-0.841159 -0.319614,-0.118106 -0.46959,0.59158 -0.798361,0.577973 -0.328725,-0.01358 -0.204135,-0.650517 -0.549738,-0.541937 -0.345642,0.108568 0.15295,0.686116 0.06422,0.997439 -0.08883,0.31131 -0.758747,0.618266 -0.541965,0.808667 0.216793,0.190378 0.765458,-0.293732 0.810088,-0.23509 0.09764,0.128295 0.624871,0.575729 0.598837,0.426137 z"
       sodipodi:nodetypes="cssssssssssc" /><path
       style="fill:#ff1107;fill-opacity:1;fill-rule:evenodd;stroke:none;stroke-width:1.19490349px;stroke-linecap:butt;stroke-linejoin:miter;stroke-opacity:1"
       d="m 48.546151,77.005821 c 0.0282,-0.05072 0.07088,-0.09329 0.121677,-0.121359 0.0508,-0.02807 0.109552,-0.04154 0.167504,-0.03842 0.09067,0.0049 0.174906,0.04911 0.248001,0.102991 0.0731,0.05388 0.138131,0.118084 0.211453,0.171653 0.07332,0.05357 0.158031,0.09711 0.24876,0.10085 0.04537,0.0019 0.09151,-0.0066 0.131923,-0.02726 0.04041,-0.02069 0.0748,-0.054 0.094,-0.09514 0.01776,-0.03805 0.02211,-0.08171 0.01529,-0.123142 -0.0068,-0.04143 -0.02445,-0.08068 -0.04832,-0.115227 -0.04773,-0.06909 -0.118571,-0.118424 -0.189813,-0.162889 -0.07124,-0.04447 -0.145374,-0.08631 -0.204915,-0.145537 -0.02977,-0.02961 -0.05565,-0.06351 -0.07347,-0.101531 -0.01782,-0.03802 -0.02739,-0.08031 -0.02446,-0.122193 0.0027,-0.03832 0.01571,-0.07554 0.03515,-0.10867 0.01944,-0.03313 0.04516,-0.0623 0.07375,-0.08795 0.05718,-0.0513 0.125301,-0.08847 0.189986,-0.129918 0.06469,-0.04144 0.127947,-0.08915 0.168359,-0.154484 0.02021,-0.03267 0.03427,-0.06947 0.03819,-0.107684 0.0039,-0.03821 -0.0026,-0.07783 -0.02109,-0.111513 -0.02206,-0.04023 -0.06044,-0.07042 -0.103518,-0.08622 -0.04308,-0.0158 -0.09054,-0.01779 -0.135715,-0.0097 -0.09034,0.01617 -0.168901,0.07033 -0.240999,0.127118 -0.0721,0.05678 -0.14242,0.118471 -0.226916,0.154291 -0.04225,0.01791 -0.08783,0.029 -0.133707,0.02828 -0.04588,-7.21e-4 -0.09209,-0.0137 -0.129399,-0.04041 -0.02772,-0.01985 -0.04998,-0.04681 -0.06628,-0.07675 -0.0163,-0.02994 -0.02677,-0.06284 -0.03308,-0.09634 -0.01262,-0.06701 -0.0088,-0.135843 -0.0073,-0.204011 0.0015,-0.06817 4.6e-4,-0.137743 -0.02126,-0.202377 -0.01086,-0.03232 -0.02692,-0.0631 -0.04902,-0.08906 -0.0221,-0.02596 -0.0504,-0.04697 -0.08248,-0.05852 -0.04505,-0.01622 -0.09609,-0.0129 -0.140238,0.0056 -0.04415,0.01852 -0.08149,0.05154 -0.10855,0.09104 -0.05411,0.079 -0.06651,0.179529 -0.06299,0.275219 0.0035,0.09569 0.02128,0.190639 0.02086,0.286392 -2.09e-4,0.04788 -0.005,0.09599 -0.01823,0.142011 -0.0132,0.04602 -0.03501,0.08999 -0.06672,0.125859 -0.03077,0.03481 -0.07026,0.06132 -0.112758,0.08009 -0.0425,0.01878 -0.08802,0.03003 -0.133955,0.03702 -0.09187,0.01396 -0.185523,0.01109 -0.277805,0.02199 -0.09228,0.0109 -0.18671,0.03771 -0.254878,0.100861 -0.03408,0.03158 -0.06062,0.07195 -0.07257,0.116844 -0.01196,0.0449 -0.0087,0.09431 0.0123,0.135761 0.01713,0.03382 0.04542,0.0614 0.07831,0.08024 0.03289,0.01884 0.07023,0.02921 0.10795,0.033 0.07543,0.0076 0.150865,-0.01057 0.224199,-0.02979 0.07333,-0.01923 0.147706,-0.03986 0.223477,-0.03737 0.03789,0.0012 0.07585,0.0084 0.110465,0.02385 0.03462,0.01544 0.06582,0.03939 0.08732,0.07061 0.01927,0.02797 0.03038,0.06117 0.03411,0.09493 0.0037,0.03376 2.78e-4,0.06809 -0.0079,0.101061 -0.01636,0.06593 -0.0509,0.125744 -0.08635,0.183691 -0.03546,0.05795 -0.07241,0.115546 -0.0972,0.178792 -0.0248,0.06325 -0.03684,0.132859 -0.02442,0.199647 0.01242,0.06679 0.05056,0.129346 0.107154,0.166921 0.0566,0.03758 0.129927,0.04828 0.195223,0.02953 0.0653,-0.01875 0.120543,-0.06525 0.157704,-0.122116 0.03716,-0.05687 0.05705,-0.122997 0.07566,-0.188333 z"
       id="path880-3-4-7"
       inkscape:connector-curvature="0"
       inkscape:path-effect="#path-effect882-0-4-4"
       inkscape:original-d="m 48.546151,77.005821 c 0.377151,0.07495 0.25866,-0.08573 0.289181,-0.159774 0.03051,-0.074 0.754207,0.447008 0.934137,0.253094 0.179868,-0.193891 -0.512118,-0.488718 -0.52569,-0.770519 -0.01357,-0.281815 0.72085,-0.454843 0.48435,-0.700215 -0.23647,-0.245322 -0.680103,0.328545 -0.970254,0.173344 -0.290106,-0.155185 0.09903,-0.674567 -0.259407,-0.727061 -0.358465,-0.05252 -0.1606,0.684369 -0.37587,0.926138 -0.215356,0.241716 -0.952099,0.226851 -0.839671,0.49257 0.112451,0.265697 0.817032,0.06831 0.831721,0.140534 0.03215,0.157981 0.312373,0.79016 0.353977,0.644121 z"
       sodipodi:nodetypes="cssssssssssc" /><path
       style="fill:#ff1107;fill-opacity:1;fill-rule:evenodd;stroke:none;stroke-width:1.19490349px;stroke-linecap:butt;stroke-linejoin:miter;stroke-opacity:1"
       d="m 52.182942,74.513532 c 0.0282,-0.05072 0.07088,-0.09329 0.121678,-0.121356 0.0508,-0.02807 0.109552,-0.04154 0.167503,-0.03841 0.09067,0.0049 0.174906,0.04911 0.248001,0.102991 0.0731,0.05388 0.138131,0.118083 0.211454,0.171652 0.07332,0.05357 0.15803,0.09711 0.24876,0.100848 0.04537,0.0019 0.09151,-0.0066 0.131923,-0.02726 0.04041,-0.02069 0.0748,-0.054 0.094,-0.09514 0.01776,-0.03805 0.02211,-0.08171 0.01529,-0.123142 -0.0068,-0.04143 -0.02445,-0.08068 -0.04832,-0.115227 -0.04773,-0.06909 -0.118571,-0.118424 -0.189813,-0.162889 -0.07124,-0.04447 -0.145374,-0.08631 -0.204915,-0.145538 -0.02977,-0.02961 -0.05565,-0.06351 -0.07347,-0.101531 -0.01782,-0.03802 -0.02738,-0.0803 -0.02446,-0.122193 0.0027,-0.03832 0.01572,-0.07554 0.03516,-0.108669 0.01944,-0.03313 0.04516,-0.0623 0.07375,-0.08795 0.05718,-0.0513 0.1253,-0.08847 0.189985,-0.129916 0.06469,-0.04144 0.127947,-0.08915 0.168359,-0.154483 0.02021,-0.03267 0.03427,-0.06947 0.03819,-0.107683 0.0039,-0.03821 -0.0026,-0.07783 -0.02109,-0.111513 -0.02206,-0.04023 -0.06044,-0.07042 -0.103518,-0.08622 -0.04308,-0.0158 -0.09054,-0.01779 -0.135714,-0.0097 -0.09034,0.01617 -0.168901,0.07033 -0.240999,0.127117 -0.0721,0.05678 -0.142421,0.118471 -0.226917,0.154291 -0.04225,0.01791 -0.08783,0.029 -0.133707,0.02828 -0.04588,-7.21e-4 -0.09209,-0.0137 -0.129399,-0.04041 -0.02772,-0.01985 -0.04998,-0.04681 -0.06628,-0.07675 -0.0163,-0.02994 -0.02677,-0.06284 -0.03308,-0.09634 -0.01262,-0.06701 -0.0088,-0.135843 -0.0073,-0.204011 0.0015,-0.06817 4.6e-4,-0.137742 -0.02126,-0.202376 -0.01086,-0.03232 -0.02692,-0.0631 -0.04902,-0.08906 -0.0221,-0.02596 -0.0504,-0.04697 -0.08248,-0.05852 -0.04505,-0.01622 -0.09609,-0.0129 -0.140238,0.0056 -0.04415,0.01852 -0.08149,0.05154 -0.10855,0.09104 -0.05411,0.079 -0.06651,0.17953 -0.06299,0.27522 0.0035,0.09569 0.02128,0.190639 0.02086,0.286393 -2.09e-4,0.04788 -0.005,0.09599 -0.01823,0.142011 -0.0132,0.04602 -0.03501,0.08999 -0.06672,0.125859 -0.03077,0.03481 -0.07026,0.06132 -0.112758,0.08009 -0.0425,0.01878 -0.08802,0.03003 -0.133955,0.03702 -0.09187,0.01396 -0.185523,0.01109 -0.277805,0.02199 -0.09228,0.01091 -0.18671,0.03771 -0.254878,0.10086 -0.03408,0.03158 -0.06062,0.07195 -0.07257,0.116845 -0.01196,0.0449 -0.0087,0.09431 0.0123,0.135761 0.01713,0.03382 0.04542,0.0614 0.07831,0.08024 0.03289,0.01884 0.07023,0.02921 0.10795,0.033 0.07543,0.0076 0.150865,-0.01057 0.224199,-0.02979 0.07333,-0.01923 0.147705,-0.03985 0.223477,-0.03737 0.03789,0.0012 0.07584,0.0084 0.110465,0.02385 0.03462,0.01544 0.06582,0.03939 0.08732,0.07061 0.01927,0.02797 0.03038,0.06117 0.03412,0.09493 0.0037,0.03376 2.79e-4,0.06809 -0.0079,0.101062 -0.01636,0.06593 -0.0509,0.125746 -0.08635,0.183694 -0.03546,0.05795 -0.07241,0.115547 -0.09721,0.178793 -0.0248,0.06325 -0.03684,0.132862 -0.02442,0.199651 0.01242,0.06679 0.05056,0.129349 0.107155,0.166925 0.0566,0.03758 0.129929,0.04828 0.195226,0.02953 0.0653,-0.01875 0.120544,-0.06525 0.157706,-0.122119 0.03716,-0.05687 0.05705,-0.122999 0.07566,-0.188336 z"
       id="path880-3-4-7-3"
       inkscape:connector-curvature="0"
       inkscape:path-effect="#path-effect882-0-4-4-6"
       inkscape:original-d="m 52.182942,74.513532 c 0.377151,0.075 0.25866,-0.0857 0.289181,-0.15977 0.03051,-0.074 0.754207,0.44701 0.934137,0.25309 0.179868,-0.19389 -0.512118,-0.48871 -0.52569,-0.77052 -0.01357,-0.28181 0.72085,-0.45484 0.48435,-0.70021 -0.23647,-0.24532 -0.680103,0.32854 -0.970254,0.17334 -0.290106,-0.15518 0.09903,-0.67456 -0.259407,-0.72706 -0.358465,-0.0525 -0.1606,0.68437 -0.37587,0.92614 -0.215356,0.24172 -0.952099,0.22685 -0.839671,0.49257 0.112451,0.2657 0.817032,0.0683 0.831721,0.14053 0.03215,0.15799 0.312373,0.79016 0.353977,0.64413 z"
       sodipodi:nodetypes="cssssssssssc" /><path
       style="fill:#ff1107;fill-opacity:1;fill-rule:evenodd;stroke:none;stroke-width:1.19490349px;stroke-linecap:butt;stroke-linejoin:miter;stroke-opacity:1"
       d="m 56.656155,72.76589 c 0.0058,-0.05774 0.02818,-0.113723 0.06373,-0.159598 0.03555,-0.04587 0.08417,-0.0815 0.138632,-0.101558 0.08521,-0.03139 0.180064,-0.0241 0.268513,-0.0035 0.08845,0.02056 0.173581,0.05379 0.262116,0.07397 0.08854,0.02018 0.183558,0.02665 0.268362,-0.0058 0.0424,-0.01623 0.08144,-0.04224 0.110368,-0.07724 0.02893,-0.035 0.04733,-0.07918 0.04868,-0.124568 0.0013,-0.04197 -0.01203,-0.08379 -0.03469,-0.119142 -0.02266,-0.03535 -0.05438,-0.06442 -0.08997,-0.0867 -0.07118,-0.04457 -0.155753,-0.06184 -0.238775,-0.07449 -0.08302,-0.01265 -0.167663,-0.02175 -0.245779,-0.05258 -0.03906,-0.01542 -0.07624,-0.03631 -0.10765,-0.06417 -0.03141,-0.02787 -0.05692,-0.06291 -0.07082,-0.102541 -0.01271,-0.03625 -0.01546,-0.07559 -0.01071,-0.113711 0.0047,-0.03812 0.01682,-0.07508 0.03293,-0.109949 0.03222,-0.06974 0.08007,-0.130832 0.123073,-0.194488 0.04301,-0.06366 0.08223,-0.1325 0.09349,-0.208493 0.0056,-0.038 0.004,-0.07736 -0.0075,-0.114006 -0.01152,-0.03664 -0.0332,-0.07044 -0.06349,-0.09407 -0.03618,-0.02822 -0.08337,-0.04076 -0.129187,-0.03822 -0.04582,0.0025 -0.09019,0.01949 -0.128479,0.04478 -0.07657,0.05059 -0.127286,0.131425 -0.171032,0.212103 -0.04375,0.08068 -0.08392,0.165157 -0.147345,0.231487 -0.03171,0.03316 -0.06918,0.06138 -0.111605,0.07888 -0.04242,0.01749 -0.09,0.02386 -0.13483,0.01409 -0.03331,-0.0073 -0.06442,-0.02321 -0.09124,-0.04426 -0.02682,-0.02105 -0.04945,-0.04712 -0.0685,-0.07539 -0.03811,-0.05654 -0.06184,-0.12127 -0.08742,-0.184473 -0.02558,-0.0632 -0.05408,-0.126683 -0.0996,-0.177449 -0.02276,-0.02538 -0.04969,-0.0473 -0.08026,-0.06239 -0.03057,-0.01509 -0.06487,-0.0232 -0.0989,-0.02111 -0.04779,0.0029 -0.09335,0.02618 -0.126569,0.06065 -0.03322,0.03448 -0.05445,0.07958 -0.06367,0.126559 -0.01844,0.09396 0.01,0.191195 0.05105,0.277684 0.04109,0.08649 0.09498,0.166659 0.132483,0.254763 0.01875,0.04405 0.03336,0.09015 0.03945,0.137636 0.0061,0.04749 0.0035,0.09649 -0.01147,0.141986 -0.01449,0.04415 -0.04026,0.08411 -0.07186,0.118173 -0.0316,0.03406 -0.06895,0.06241 -0.108375,0.087 -0.07885,0.04918 -0.165994,0.08359 -0.24643,0.130123 -0.08044,0.04653 -0.15655,0.108511 -0.194167,0.193481 -0.01881,0.04248 -0.0272,0.09006 -0.02042,0.136024 0.0068,0.04596 0.02933,0.09005 0.06501,0.119815 0.02911,0.02428 0.066,0.03842 0.103666,0.04271 0.03766,0.0043 0.07606,-9.6e-4 0.112198,-0.01241 0.07227,-0.0229 0.134371,-0.0694 0.194112,-0.116074 0.05974,-0.04668 0.119879,-0.09505 0.190449,-0.12275 0.03529,-0.01385 0.07298,-0.02229 0.110885,-0.02181 0.0379,4.78e-4 0.07603,0.01013 0.108136,0.03029 0.02877,0.01806 0.0521,0.04415 0.06889,0.07368 0.01679,0.02953 0.0272,0.06243 0.03273,0.09594 0.01106,0.06703 0.003,0.135622 -0.0066,0.20287 -0.0096,0.06725 -0.02078,0.134768 -0.01853,0.202666 0.0023,0.0679 0.01874,0.136595 0.05657,0.193019 0.03784,0.05642 0.09761,0.09879 0.16446,0.1109 0.06685,0.01211 0.138428,-0.0071 0.190977,-0.05013 0.05255,-0.04305 0.08489,-0.107622 0.09651,-0.174554 0.01163,-0.06693 0.0037,-0.135536 -0.005,-0.202903 z"
       id="path880-3-4-7-7"
       inkscape:connector-curvature="0"
       inkscape:path-effect="#path-effect882-0-4-4-1"
       inkscape:original-d="m 56.656155,72.76589 c 0.376046,-0.08036 0.203639,-0.181055 0.20236,-0.261156 -0.0013,-0.08003 0.869529,0.112096 0.958042,-0.137193 0.08847,-0.249238 -0.663698,-0.246185 -0.787672,-0.499625 -0.123971,-0.25344 0.482043,-0.70295 0.167755,-0.834714 -0.314241,-0.131729 -0.494597,0.570835 -0.822478,0.543112 -0.327832,-0.02772 -0.175968,-0.658691 -0.525925,-0.565077 -0.349982,0.09362 0.123305,0.692063 0.02127,0.99928 -0.102134,0.307206 -0.784631,0.585071 -0.576237,0.784617 0.208408,0.19952 0.777376,-0.260564 0.819446,-0.200041 0.09204,0.132374 0.599536,0.602068 0.579962,0.451494 z"
       sodipodi:nodetypes="cssssssssssc" /><path
       style="fill:#ff1107;fill-opacity:1;fill-rule:evenodd;stroke:none;stroke-width:1.19490349px;stroke-linecap:butt;stroke-linejoin:miter;stroke-opacity:1"
       d="m 61.338611,72.152442 c 0.01807,-0.05515 0.0519,-0.105042 0.09645,-0.142234 0.04455,-0.03719 0.09968,-0.06157 0.157175,-0.06949 0.08996,-0.0124 0.181047,0.01504 0.263035,0.05408 0.08199,0.03903 0.158023,0.08974 0.240177,0.128422 0.08215,0.03869 0.173582,0.06537 0.263373,0.05183 0.0449,-0.0068 0.0886,-0.02381 0.124356,-0.05179 0.03575,-0.02799 0.0632,-0.0672 0.07424,-0.111242 0.01022,-0.04073 0.0062,-0.08442 -0.0083,-0.123807 -0.01455,-0.03939 -0.03931,-0.07458 -0.0693,-0.103969 -0.05997,-0.05878 -0.138882,-0.09378 -0.217265,-0.123925 -0.07838,-0.03014 -0.159108,-0.05717 -0.228802,-0.104024 -0.03485,-0.02343 -0.06669,-0.0518 -0.0914,-0.08575 -0.02471,-0.03395 -0.04212,-0.07365 -0.0472,-0.115334 -0.0046,-0.03813 0.0011,-0.07715 0.0139,-0.113365 0.0128,-0.03621 0.03252,-0.06973 0.05572,-0.100338 0.04641,-0.06122 0.106242,-0.110636 0.161892,-0.163597 0.05565,-0.05296 0.108712,-0.111801 0.135997,-0.183615 0.01364,-0.03591 0.02047,-0.07471 0.01707,-0.112972 -0.0034,-0.03826 -0.01734,-0.07592 -0.04186,-0.105488 -0.02929,-0.03532 -0.0727,-0.05768 -0.117994,-0.06502 -0.0453,-0.0073 -0.09228,-2.92e-4 -0.135092,0.01621 -0.08563,0.03301 -0.152493,0.101096 -0.21251,0.170525 -0.06002,0.06943 -0.117362,0.143336 -0.193529,0.194534 -0.03808,0.0256 -0.08073,0.04513 -0.125915,0.05313 -0.04518,0.008 -0.09302,0.004 -0.134716,-0.01513 -0.03098,-0.01423 -0.05795,-0.03648 -0.07964,-0.06279 -0.02168,-0.02631 -0.0382,-0.05662 -0.05075,-0.08831 -0.02511,-0.06339 -0.03442,-0.131705 -0.04586,-0.198923 -0.01145,-0.06722 -0.02568,-0.135329 -0.05926,-0.194669 -0.01679,-0.02967 -0.0384,-0.05685 -0.06502,-0.07814 -0.02663,-0.02129 -0.05839,-0.03656 -0.09208,-0.04181 -0.04731,-0.0074 -0.09679,0.0056 -0.136626,0.03212 -0.03984,0.02656 -0.07024,0.06606 -0.08931,0.109975 -0.03815,0.08783 -0.03125,0.188887 -0.0096,0.282173 0.02161,0.09328 0.05706,0.18314 0.07481,0.277235 0.0089,0.04705 0.01327,0.0952 0.009,0.142891 -0.0042,0.04769 -0.0173,0.09499 -0.04163,0.13623 -0.02361,0.04002 -0.05735,0.07353 -0.09552,0.100028 -0.03817,0.0265 -0.08073,0.04619 -0.124501,0.06176 -0.08755,0.03114 -0.180051,0.04608 -0.268589,0.07429 -0.08854,0.02821 -0.176166,0.07244 -0.231118,0.147377 -0.02748,0.03747 -0.04587,0.08214 -0.04909,0.128489 -0.0032,0.04635 0.0094,0.09425 0.03783,0.130964 0.02323,0.02995 0.05624,0.05167 0.09211,0.06393 0.03587,0.01226 0.0745,0.01536 0.11225,0.01192 0.0755,-0.0069 0.146121,-0.03899 0.214477,-0.07178 0.06836,-0.03279 0.137463,-0.06715 0.21233,-0.07909 0.03743,-0.006 0.07606,-0.0061 0.112982,0.0025 0.03692,0.0086 0.0721,0.02619 0.09913,0.05276 0.02423,0.02381 0.04143,0.05429 0.0515,0.08673 0.01007,0.03244 0.01319,0.06681 0.01141,0.100727 -0.0036,0.06784 -0.02612,0.133117 -0.04994,0.196739 -0.02382,0.06362 -0.04918,0.127184 -0.06153,0.193987 -0.01235,0.0668 -0.01097,0.137438 0.01389,0.200659 0.02486,0.06322 0.07418,0.117409 0.136874,0.143567 0.0627,0.02616 0.136728,0.02276 0.197283,-0.008 0.06056,-0.03079 0.105979,-0.08693 0.131678,-0.149818 0.0257,-0.06289 0.03269,-0.131589 0.03856,-0.199269 z"
       id="path880-3-4-7-9"
       inkscape:connector-curvature="0"
       inkscape:path-effect="#path-effect882-0-4-4-5"
       inkscape:original-d="m 61.338611,72.152442 c 0.38453,0.0021 0.237707,-0.133211 0.253623,-0.211725 0.01592,-0.07844 0.825308,0.295825 0.965186,0.07129 0.139822,-0.22449 -0.595525,-0.382692 -0.662308,-0.65681 -0.06678,-0.274119 0.621481,-0.583323 0.34273,-0.779375 -0.278712,-0.196009 -0.605432,0.451586 -0.919756,0.354244 -0.314275,-0.09733 -0.03073,-0.681098 -0.392615,-0.664651 -0.361916,0.01645 -0.02786,0.702409 -0.193363,0.980624 -0.165593,0.278183 -0.89178,0.403338 -0.730988,0.642907 0.160811,0.239545 0.815154,-0.08793 0.843278,-0.01979 0.06153,0.149023 0.456589,0.716558 0.469737,0.565288 z"
       sodipodi:nodetypes="cssssssssssc" /><path
       style="fill:#ff1107;fill-opacity:1;fill-rule:evenodd;stroke:none;stroke-width:1.19490349px;stroke-linecap:butt;stroke-linejoin:miter;stroke-opacity:1"
       d="m 66.902755,71.981818 c -0.03879,-0.04316 -0.06517,-0.09735 -0.07521,-0.154508 -0.01004,-0.05715 -0.0037,-0.117093 0.01805,-0.17089 0.03403,-0.08414 0.103122,-0.14945 0.177739,-0.201116 0.07462,-0.05167 0.156384,-0.09237 0.230803,-0.144319 0.07442,-0.05195 0.143067,-0.117869 0.176135,-0.202388 0.01653,-0.04226 0.0236,-0.0886 0.01725,-0.133535 -0.0064,-0.04493 -0.02656,-0.08829 -0.05911,-0.119902 -0.03012,-0.02925 -0.06992,-0.04768 -0.111279,-0.05485 -0.04136,-0.0072 -0.08422,-0.0034 -0.124677,0.0078 -0.08092,0.02238 -0.150767,0.07309 -0.21605,0.125889 -0.06528,0.0528 -0.128916,0.109275 -0.204145,0.146558 -0.03761,0.01864 -0.078,0.03228 -0.119709,0.03705 -0.04171,0.0048 -0.08481,4.35e-4 -0.12364,-0.01553 -0.03531,-0.01452 -0.06641,-0.03835 -0.09173,-0.06692 -0.02532,-0.02858 -0.04501,-0.06182 -0.0605,-0.09672 -0.03097,-0.06979 -0.0452,-0.145598 -0.06392,-0.219623 -0.01872,-0.07403 -0.04308,-0.148685 -0.09055,-0.208491 -0.02374,-0.0299 -0.05315,-0.05564 -0.08726,-0.07279 -0.03411,-0.01715 -0.07303,-0.02544 -0.11095,-0.021 -0.04542,0.0053 -0.08782,0.02885 -0.119163,0.06215 -0.03134,0.03329 -0.05196,0.07587 -0.06242,0.120385 -0.0209,0.08903 -0.0021,0.182498 0.02455,0.269994 0.0266,0.0875 0.06111,0.173436 0.07233,0.264195 0.0056,0.04538 0.0052,0.09182 -0.005,0.136391 -0.01019,0.04457 -0.03051,0.08728 -0.06158,0.120831 -0.02576,0.02781 -0.05837,0.04882 -0.09338,0.06335 -0.03501,0.01453 -0.07241,0.02274 -0.110079,0.02701 -0.07533,0.0085 -0.151446,0.0015 -0.227259,0.0016 -0.07581,9e-5 -0.153941,0.008 -0.220878,0.04359 -0.03347,0.0178 -0.06359,0.0425 -0.08542,0.07349 -0.02183,0.03099 -0.03506,0.06843 -0.03488,0.106341 1.8e-4,0.03759 0.01354,0.0746 0.03525,0.10528 0.02172,0.03069 0.05151,0.05521 0.08456,0.07312 0.0661,0.03582 0.143186,0.0451 0.218315,0.04796 0.07513,0.0029 0.150997,3.5e-5 0.224818,0.01428 0.03691,0.0071 0.07319,0.01857 0.106254,0.03646 0.03306,0.01789 0.06287,0.04239 0.08461,0.07306 0.02369,0.03341 0.03726,0.07341 0.0421,0.114072 0.0048,0.04067 0.0012,0.08204 -0.0074,0.122075 -0.01723,0.08008 -0.05377,0.154423 -0.08328,0.230829 -0.02951,0.07641 -0.0524,0.15852 -0.04044,0.239548 0.006,0.04051 0.02092,0.08008 0.04591,0.11253 0.02499,0.03245 0.06034,0.05743 0.10015,0.06705 0.03821,0.0092 0.07923,0.004 0.11529,-0.01161 0.03606,-0.01565 0.06727,-0.04135 0.0921,-0.07182 0.04967,-0.06093 0.07339,-0.138602 0.09172,-0.215045 0.01834,-0.07644 0.03279,-0.1549 0.06786,-0.225251 0.01754,-0.03518 0.04027,-0.06807 0.06926,-0.09461 0.02899,-0.02654 0.06445,-0.04656 0.10293,-0.05459 0.03349,-0.007 0.06859,-0.0048 0.101597,0.0042 0.03301,0.009 0.06401,0.02457 0.09224,0.04391 0.05645,0.03866 0.101505,0.09146 0.145154,0.144151 0.04365,0.05269 0.08706,0.106267 0.13991,0.149728 0.05285,0.04346 0.115961,0.07641 0.183843,0.08498 0.06788,0.0086 0.139559,-0.0088 0.193082,-0.05144 0.05352,-0.04262 0.08662,-0.109411 0.08935,-0.177779 0.0027,-0.06837 -0.02396,-0.13593 -0.06616,-0.189781 -0.04221,-0.05385 -0.09868,-0.09441 -0.154822,-0.133516 z"
       id="path880-3-4-7-1"
       inkscape:connector-curvature="0"
       inkscape:path-effect="#path-effect882-0-4-4-62"
       inkscape:original-d="m 66.902755,71.981818 c 0.193449,-0.332333 0.003,-0.272471 -0.05716,-0.325398 -0.06007,-0.05289 0.667767,-0.568096 0.542814,-0.80126 -0.124948,-0.233095 -0.628565,0.325588 -0.8995,0.24688 -0.270935,-0.07871 -0.196008,-0.82951 -0.504896,-0.685544 -0.308831,0.143955 0.08979,0.749944 -0.151243,0.973943 -0.241003,0.223965 -0.605807,-0.0066 -0.771897,0.315381 -0.166099,0.32197 0.595084,0.06802 0.753812,0.350158 0.158652,0.282199 -0.230821,0.906115 0.05701,0.886102 0.28782,-0.02004 0.466086,-0.682495 0.539171,-0.672924 0.159866,0.02092 0.84878,-0.03875 0.724184,-0.125537 z"
       sodipodi:nodetypes="cssssssssssc" /><path
       style="fill:#ff1107;fill-opacity:1;fill-rule:evenodd;stroke:none;stroke-width:1.19490349px;stroke-linecap:butt;stroke-linejoin:miter;stroke-opacity:1"
       d="m 71.700303,72.019902 c -0.05755,-0.0075 -0.11286,-0.03142 -0.157705,-0.06826 -0.04485,-0.03683 -0.07908,-0.08644 -0.09761,-0.141432 -0.02897,-0.08601 -0.01909,-0.180569 0.0039,-0.268372 0.02297,-0.0878 0.0585,-0.171945 0.08114,-0.259836 0.02263,-0.08789 0.03179,-0.182622 0.0018,-0.268294 -0.01498,-0.04284 -0.0398,-0.08261 -0.07389,-0.112561 -0.03409,-0.02996 -0.07765,-0.0497 -0.122948,-0.05248 -0.0419,-0.0026 -0.08411,0.0094 -0.120167,0.03085 -0.03606,0.0215 -0.06613,0.05225 -0.08955,0.0871 -0.04683,0.06969 -0.0668,0.153659 -0.08195,0.236242 -0.01515,0.08258 -0.02665,0.166884 -0.05945,0.244172 -0.0164,0.03865 -0.03817,0.0753 -0.06671,0.10608 -0.02854,0.03078 -0.06407,0.05557 -0.103932,0.06875 -0.03625,0.01198 -0.07537,0.01416 -0.113189,0.009 -0.03782,-0.0052 -0.07442,-0.01759 -0.1089,-0.03399 -0.06896,-0.03279 -0.129126,-0.08105 -0.191544,-0.125025 -0.06242,-0.04398 -0.129528,-0.08477 -0.204501,-0.09923 -0.03749,-0.0072 -0.07657,-0.0076 -0.113624,0.0016 -0.03705,0.0092 -0.07199,0.02826 -0.09787,0.05633 -0.031,0.03361 -0.04785,0.07909 -0.04995,0.124771 -0.0021,0.04568 0.01,0.09142 0.03104,0.132003 0.04212,0.08117 0.117308,0.139819 0.194478,0.188889 0.07717,0.04907 0.159334,0.0918 0.226959,0.153366 0.03381,0.03078 0.06377,0.06626 0.08507,0.106726 0.0213,0.04046 0.0337,0.0861 0.03197,0.131796 -0.0014,0.03788 -0.0125,0.07506 -0.0296,0.10889 -0.0171,0.03383 -0.04014,0.06442 -0.06594,0.09219 -0.0516,0.05554 -0.113931,0.09979 -0.1714,0.149235 -0.05747,0.04944 -0.111608,0.106326 -0.139215,0.176934 -0.0138,0.0353 -0.02058,0.07367 -0.01695,0.111398 0.0036,0.03773 0.01797,0.07476 0.04279,0.10341 0.02462,0.02841 0.05886,0.04779 0.09532,0.05693 0.03646,0.0091 0.07504,0.0083 0.111787,4.11e-4 0.07349,-0.01587 0.138023,-0.05904 0.196897,-0.105798 0.05888,-0.04676 0.114602,-0.09832 0.179896,-0.135591 0.03265,-0.01864 0.06763,-0.03358 0.104372,-0.04154 0.03674,-0.008 0.07532,-0.0088 0.111789,3.29e-4 0.03973,0.0099 0.07608,0.03144 0.106238,0.05914 0.03016,0.02771 0.05433,0.06148 0.07388,0.09747 0.03908,0.07198 0.05978,0.152198 0.08715,0.229396 0.02737,0.0772 0.06348,0.154416 0.125338,0.208107 0.03093,0.02685 0.06803,0.04714 0.108126,0.05549 0.04009,0.0083 0.08319,0.0043 0.119664,-0.01435 0.035,-0.01788 0.06275,-0.04854 0.07993,-0.0839 0.01717,-0.03536 0.02411,-0.0752 0.02311,-0.114489 -0.002,-0.07859 -0.03459,-0.15297 -0.07046,-0.222919 -0.03587,-0.06995 -0.07601,-0.138895 -0.09521,-0.215125 -0.0096,-0.03811 -0.01378,-0.07788 -0.0091,-0.116904 0.0047,-0.03902 0.01858,-0.07731 0.04255,-0.108462 0.02086,-0.02711 0.04894,-0.04829 0.07984,-0.06297 0.0309,-0.01469 0.06458,-0.02304 0.09859,-0.02676 0.06802,-0.0074 0.136593,0.0033 0.204032,0.01484 0.06744,0.01156 0.135278,0.02393 0.203685,0.02249 0.06841,-0.0014 0.137756,-0.01755 0.194851,-0.05525 0.05709,-0.03771 0.100157,-0.09759 0.113011,-0.16479 0.01285,-0.0672 -0.0055,-0.139441 -0.04799,-0.193093 -0.04246,-0.05365 -0.106711,-0.08755 -0.173813,-0.100916 -0.0671,-0.01337 -0.136367,-0.0074 -0.204441,-4.77e-4 z"
       id="path880-3-4-7-1-8"
       inkscape:connector-curvature="0"
       inkscape:path-effect="#path-effect882-0-4-4-62-7"
       inkscape:original-d="m 71.700303,72.019902 c -0.06967,-0.378178 -0.175191,-0.208704 -0.255311,-0.209687 -0.08004,-0.001 0.136696,-0.866005 -0.109979,-0.961546 -0.246633,-0.0955 -0.2649,0.656454 -0.521754,0.773193 -0.256846,0.116744 -0.689003,-0.501778 -0.829626,-0.191357 -0.140581,0.310385 0.556586,0.510587 0.519578,0.837551 -0.03701,0.32691 -0.46399,0.389562 -0.380311,0.742059 0.08366,0.352497 0.495856,-0.335975 0.800063,-0.225263 0.304188,0.110803 0.415013,0.837901 0.620389,0.635249 0.205374,-0.202637 -0.09085,-0.821455 -0.02916,-0.861795 0.13492,-0.08827 0.618791,-0.582263 0.467759,-0.566923 z"
       sodipodi:nodetypes="cssssssssssc" /></g></svg>